<svg xmlns="http://www.w3.org/2000/svg" viewBox="0 0 200 200" fill="none">
  <rect width="200" height="200" rx="40" fill="#8B5CF6"/>
  <path d="M100 50C72.3858 50 50 72.3858 50 100C50 127.614 72.3858 150 100 150C127.614 150 150 127.614 150 100C150 72.3858 127.614 50 100 50ZM100 135C80.67 135 65 119.33 65 100C65 80.67 80.67 65 100 65C119.33 65 135 80.67 135 100C135 119.33 119.33 135 100 135Z" fill="white"/>
  <path d="M100 120C111.046 120 120 111.046 120 100C120 88.9543 111.046 80 100 80C88.9543 80 80 88.9543 80 100C80 111.046 88.9543 120 100 120Z" fill="white" opacity="0.5"/>
</svg>